<svg width="100" height="65" viewBox="0 0 100 65" fill="none" xmlns="http://www.w3.org/2000/svg">
<path d="M0.845017 1.90557C0.72572 1.72647 0.676013 1.5573 0.695896 1.3981C0.715779 1.23889 0.775427 1.11951 0.874841 1.0399C0.974255 0.940401 1.10349 0.890625 1.26256 0.890625C1.42162 0.890625 1.58068 0.960299 1.73974 1.0996C2.41576 1.99512 2.93271 2.95035 3.2906 3.96528C3.64849 4.9603 3.99644 5.99512 4.33445 7.06975C4.43386 7.34836 4.53328 7.63691 4.63269 7.93542C4.73211 8.23393 4.8514 8.52248 4.99058 8.80109C5.22918 8.74138 5.41806 8.79113 5.55724 8.95033C5.77595 8.55232 5.99467 8.18418 6.21338 7.84587C6.45197 7.48766 6.68062 7.11949 6.89933 6.74138C7.3964 5.90556 7.87359 5.06975 8.3309 4.23392C8.7882 3.3981 9.30515 2.58219 9.88176 1.78617C10.0209 1.62697 10.1701 1.5374 10.3291 1.5175C10.4882 1.4976 10.6274 1.52744 10.7467 1.60704C10.866 1.68665 10.9455 1.80606 10.9853 1.96527C11.025 2.12447 10.9853 2.29364 10.866 2.47274C10.1104 3.52747 9.42445 4.62198 8.80808 5.75631C8.2116 6.89064 7.56541 8.00505 6.86951 9.09958C6.71045 9.35829 6.55138 9.62697 6.39232 9.90558C6.23326 10.1643 6.04437 10.4031 5.82566 10.622C5.80578 10.6419 5.77595 10.6518 5.73619 10.6518C5.77595 11.8061 5.82566 12.9603 5.88531 14.1145C5.94496 15.2687 5.93502 16.423 5.85549 17.5772C5.81572 18.0946 5.73619 18.612 5.61689 19.1294C5.51748 19.627 5.42801 20.1344 5.34847 20.6518V20.6817C5.30871 20.6618 5.24906 20.6518 5.16953 20.6518C5.01047 20.6518 4.84146 20.6518 4.66252 20.6518C4.50345 20.6717 4.33445 20.6916 4.15551 20.7115V20.5324C4.15551 20.4329 4.17539 20.3235 4.21515 20.2041C4.29468 19.7464 4.37422 19.3086 4.45375 18.8907C4.55316 18.4528 4.62275 18.0051 4.66252 17.5474C4.72217 16.3533 4.72217 15.1692 4.66252 13.9951C4.60287 12.8011 4.5631 11.6071 4.54322 10.413C4.34439 10.1941 4.18533 9.92546 4.06603 9.60705C3.94674 9.28864 3.8175 8.99014 3.67832 8.71154C3.41984 8.15432 3.20113 7.57722 3.02218 6.9802C2.84324 6.38319 2.65435 5.7961 2.45552 5.21899C2.27658 4.62197 2.05787 4.04487 1.79939 3.48766C1.5608 2.93044 1.24267 2.40308 0.845017 1.90557ZM11.8848 13.8757C11.9047 13.8956 11.9246 13.9056 11.9445 13.9056C12.4615 13.9454 12.8989 14.1643 13.2568 14.5623C13.6345 14.9404 13.903 15.3981 14.062 15.9354C14.2211 16.4727 14.2608 17.0299 14.1813 17.6071C14.1217 18.1842 13.9129 18.6817 13.555 19.0996C13.3761 19.2986 13.1474 19.4478 12.869 19.5473C12.6106 19.6269 12.3322 19.6867 12.034 19.7265C11.7556 19.7464 11.4673 19.7464 11.1691 19.7265C10.8907 19.7066 10.6422 19.6867 10.4235 19.6668C9.72758 19.627 9.19075 19.418 8.81297 19.0399C8.45508 18.6618 8.23637 18.214 8.15684 17.6966C8.05743 17.1593 8.08725 16.612 8.24631 16.0548C8.40538 15.4777 8.65391 14.9802 8.99192 14.5623C9.32993 14.1444 9.74747 13.8558 10.2445 13.6966C10.7416 13.5374 11.2884 13.5971 11.8848 13.8757ZM11.4077 15.1593C11.2088 15.2588 11.0398 15.2787 10.9007 15.219C10.7615 15.1394 10.6621 15.0299 10.6024 14.8906C10.2843 14.9702 10.0159 15.1593 9.79717 15.4578C9.59835 15.7364 9.44922 16.0548 9.34981 16.413C9.27028 16.7513 9.2504 17.0897 9.29016 17.428C9.34981 17.7464 9.48899 17.9752 9.7077 18.1145C10.0258 18.3334 10.3936 18.4628 10.8112 18.5026C11.2287 18.5424 11.6164 18.5424 11.9743 18.5026C12.3919 18.4429 12.6901 18.2737 12.869 17.9951C13.048 17.7165 13.1275 17.3981 13.1076 17.0399C13.0878 16.6817 12.9983 16.3334 12.8392 15.9951C12.6802 15.6369 12.4714 15.3683 12.2129 15.1892C12.1732 15.1494 12.0936 15.1095 11.9743 15.0697H11.7954C11.6761 15.0697 11.5468 15.0996 11.4077 15.1593ZM15.4736 14.3235C15.4935 14.1245 15.5531 13.9653 15.6525 13.8459C15.7718 13.7265 15.9011 13.6668 16.0403 13.6668C16.1794 13.6469 16.3087 13.6867 16.428 13.7862C16.5473 13.8857 16.6268 14.0449 16.6666 14.2638C16.7063 14.7215 16.7759 15.1792 16.8753 15.6369C16.9748 16.0946 17.0443 16.5523 17.0841 17.01C17.104 17.2289 17.094 17.4678 17.0543 17.7265C17.0344 17.9653 17.0245 18.2041 17.0245 18.4429C17.6607 17.8857 18.128 17.2588 18.4262 16.5623C18.7244 15.8658 19.0227 15.1394 19.3209 14.3832C19.4402 14.3434 19.5595 14.3135 19.6788 14.2936C19.818 14.2737 19.9572 14.2439 20.0964 14.2041L20.0665 14.1444C20.0864 14.1444 20.0964 14.1543 20.0964 14.1742C20.1162 14.1742 20.1361 14.1742 20.156 14.1742C20.1361 14.1742 20.1162 14.1842 20.0964 14.2041L20.5139 14.7414C20.5338 15.0399 20.5338 15.3583 20.5139 15.6966C20.5139 16.015 20.5338 16.3434 20.5735 16.6817C20.6133 17.0001 20.6829 17.3086 20.7823 17.6071C20.8817 17.8857 21.0408 18.1444 21.2595 18.3832C21.4186 18.7215 21.3887 18.9901 21.17 19.1891C20.9513 19.3882 20.6829 19.3882 20.3648 19.1891C20.0864 18.8906 19.8776 18.5722 19.7385 18.2339C19.5993 17.8757 19.4999 17.4976 19.4402 17.0996C19.2414 17.4976 19.0127 17.8956 18.7543 18.2936C18.5157 18.6717 18.2572 19.0001 17.9788 19.2787C17.7204 19.5374 17.4519 19.7165 17.1736 19.816C16.8952 19.9155 16.6268 19.8757 16.3683 19.6966C16.1496 19.5573 16.0005 19.3782 15.921 19.1593C15.8613 18.9404 15.8315 18.7115 15.8315 18.4727C15.8315 18.2339 15.8414 17.9951 15.8613 17.7563C15.9011 17.4976 15.911 17.2687 15.8911 17.0697C15.8514 16.612 15.7818 16.1543 15.6824 15.6966C15.583 15.2389 15.5134 14.7812 15.4736 14.3235ZM22.5253 13.3981C22.4657 13.219 22.4557 13.0598 22.4955 12.9205C22.5353 12.7812 22.6049 12.6817 22.7043 12.622C22.8236 12.5623 22.9528 12.5424 23.092 12.5623C23.2511 12.5623 23.4002 12.622 23.5394 12.7414C23.6189 12.8807 23.6885 13.01 23.7481 13.1294C23.8277 13.2489 23.8973 13.3782 23.9569 13.5175C24.0563 13.3185 24.2054 13.1195 24.4043 12.9205C24.8417 12.5026 25.2692 12.2041 25.6867 12.025C26.1042 11.8459 26.492 11.7862 26.8498 11.8459C27.2077 11.9056 27.506 12.0946 27.7446 12.413C28.0031 12.7314 28.1919 13.1892 28.3112 13.7862C28.3311 14.0051 28.2914 14.1742 28.1919 14.2936C28.1124 14.413 28.003 14.4926 27.8639 14.5324C27.7446 14.5523 27.6153 14.5225 27.4762 14.4429C27.337 14.3633 27.2276 14.2339 27.1481 14.0548C27.0089 13.418 26.7902 13.0598 26.492 12.9802C26.1937 12.8807 25.7861 13.1394 25.2692 13.7563C25.0505 14.0349 24.8616 14.3533 24.7025 14.7115C24.5633 15.0697 24.444 15.4479 24.3446 15.8459C24.3645 16.1842 24.3645 16.5225 24.3446 16.8608C24.3446 17.1991 24.3645 17.5374 24.4043 17.8757C24.444 18.1742 24.4739 18.4628 24.4937 18.7414C24.5335 19.0001 24.5335 19.2887 24.4937 19.6071C24.2949 19.6071 24.0961 19.617 23.8972 19.6369C23.6984 19.6369 23.4996 19.6469 23.3008 19.6668C23.1616 19.2091 23.0821 18.6518 23.0622 17.9951C23.0423 17.3185 23.0821 16.6319 23.1815 15.9354C23.1815 15.4777 23.1318 15.0399 23.0323 14.622C22.9528 14.2041 22.7838 13.7961 22.5253 13.3981ZM39.887 14.6518C39.8472 14.8309 39.7777 14.9702 39.6782 15.0697C39.5788 15.1692 39.4595 15.219 39.3204 15.219C39.2011 15.219 39.0818 15.1792 38.9625 15.0996C38.8432 15.0001 38.7537 14.8707 38.694 14.7115V14.6817C38.4753 14.6021 38.2467 14.5225 38.0081 14.4429C37.7695 14.3633 37.5309 14.3036 37.2923 14.2638C36.8748 14.224 36.5368 14.3235 36.2783 14.5623C36.0198 14.8011 35.8309 15.0996 35.7116 15.4578C35.5923 15.816 35.5526 16.1941 35.5923 16.5921C35.6321 16.9902 35.7414 17.3285 35.9204 17.6071C36.1391 17.9255 36.3976 18.1444 36.6958 18.2638C36.9941 18.3832 37.3022 18.4429 37.6204 18.4429C37.9385 18.423 38.2566 18.3633 38.5747 18.2638C38.9128 18.1643 39.2209 18.0449 39.4993 17.9056C39.6782 17.8658 39.8274 17.8757 39.9467 17.9354C40.0858 17.9951 40.1853 18.0847 40.2449 18.2041C40.3046 18.3036 40.3145 18.423 40.2747 18.5623C40.2548 18.7016 40.1753 18.8309 40.0361 18.9504C39.3402 19.2887 38.6443 19.4876 37.9484 19.5473C37.2724 19.607 36.666 19.5076 36.1292 19.2488C35.5923 18.9901 35.1549 18.5822 34.8169 18.025C34.4988 17.4478 34.3596 16.7115 34.3994 15.816C34.4192 15.5374 34.4789 15.2488 34.5783 14.9503C34.6976 14.6518 34.8467 14.413 35.0257 14.2339C35.1847 14.0747 35.3239 13.9056 35.4432 13.7265C35.5625 13.5275 35.7315 13.408 35.9502 13.3682C36.2485 13.2886 36.6063 13.2289 37.0239 13.1891C37.4613 13.1493 37.8788 13.1692 38.2765 13.2488C38.6742 13.3285 39.0221 13.4777 39.3204 13.6966C39.6385 13.9155 39.8274 14.2339 39.887 14.6518ZM41.4242 14.3235C41.444 14.1245 41.5037 13.9653 41.6031 13.8459C41.7224 13.7265 41.8516 13.6668 41.9908 13.6668C42.13 13.6469 42.2592 13.6867 42.3785 13.7862C42.4978 13.8857 42.5774 14.0449 42.6171 14.2638C42.6569 14.7215 42.7265 15.1792 42.8259 15.6369C42.9253 16.0946 42.9949 16.5523 43.0347 17.01C43.0545 17.2289 43.0446 17.4678 43.0048 17.7265C42.985 17.9653 42.975 18.2041 42.975 18.4429C43.6113 17.8857 44.0785 17.2588 44.3768 16.5623C44.675 15.8658 44.9732 15.1394 45.2715 14.3832C45.3908 14.3434 45.5101 14.3135 45.6294 14.2936C45.7685 14.2737 45.9077 14.2439 46.0469 14.2041L46.0171 14.1444C46.037 14.1444 46.0469 14.1543 46.0469 14.1742C46.0668 14.1742 46.0867 14.1742 46.1066 14.1742C46.0867 14.1742 46.0668 14.1842 46.0469 14.2041L46.4644 14.7414C46.4843 15.0399 46.4843 15.3583 46.4644 15.6966C46.4644 16.015 46.4843 16.3434 46.5241 16.6817C46.5639 17.0001 46.6334 17.3086 46.7329 17.6071C46.8323 17.8857 46.9913 18.1444 47.21 18.3832C47.3691 18.7215 47.3393 18.9901 47.1206 19.1891C46.9019 19.3882 46.6334 19.3882 46.3153 19.1891C46.037 18.8906 45.8282 18.5722 45.689 18.2339C45.5498 17.8757 45.4504 17.4976 45.3908 17.0996C45.1919 17.4976 44.9633 17.8956 44.7048 18.2936C44.4662 18.6717 44.2077 19.0001 43.9294 19.2787C43.6709 19.5374 43.4025 19.7165 43.1241 19.816C42.8458 19.9155 42.5774 19.8757 42.3189 19.6966C42.1002 19.5573 41.951 19.3782 41.8715 19.1593C41.8119 18.9404 41.782 18.7115 41.782 18.4727C41.782 18.2339 41.792 17.9951 41.8119 17.7563C41.8516 17.4976 41.8616 17.2687 41.8417 17.0697C41.8019 16.612 41.7323 16.1543 41.6329 15.6966C41.5335 15.2389 41.4639 14.7812 41.4242 14.3235ZM54.053 15.5772C53.6752 15.5971 53.4466 15.4479 53.3671 15.1295C53.0489 15.03 52.6612 15.02 52.2039 15.0996C51.7466 15.1593 51.3589 15.2489 51.0408 15.3683C51.4782 15.5474 51.9753 15.7066 52.532 15.8459C53.1086 15.9653 53.6554 16.1145 54.1723 16.2936C54.6893 16.4727 55.1366 16.7016 55.5144 16.9802C55.9121 17.2588 56.1606 17.627 56.26 18.0847L56.0214 18.7712C55.6238 19.0299 55.0372 19.2488 54.2618 19.4279C53.4864 19.607 52.691 19.7066 51.8758 19.7265C51.0805 19.7265 50.3449 19.6269 49.6689 19.4279C48.9928 19.2289 48.5654 18.8707 48.3864 18.3533L48.5654 17.816L48.9233 17.4578C49.0624 17.3782 49.2016 17.3484 49.3408 17.3683C49.48 17.3683 49.5993 17.4081 49.6987 17.4877C49.7981 17.5673 49.8577 17.6767 49.8776 17.816C49.9174 17.9553 49.8975 18.0946 49.818 18.2339C50.156 18.3533 50.5437 18.4429 50.9811 18.5026C51.4185 18.5424 51.8659 18.5523 52.3232 18.5324C52.7805 18.5125 53.2279 18.4628 53.6653 18.3832C54.1226 18.3036 54.5302 18.1842 54.8881 18.025C54.6495 17.7662 54.2419 17.5573 53.6653 17.3981C53.1086 17.2389 52.532 17.0797 51.9355 16.9205C51.339 16.7613 50.7922 16.5822 50.2952 16.3832C49.7981 16.1842 49.5098 15.9155 49.4303 15.5772C49.3706 15.3384 49.4303 15.1095 49.6092 14.8906C49.7882 14.6717 50.0367 14.4926 50.3548 14.3533C50.6928 14.1941 51.0706 14.0747 51.4881 13.9951C51.9057 13.9155 52.3133 13.8757 52.7109 13.8757C53.1285 13.8757 53.5062 13.9354 53.8442 14.0548C54.1823 14.1543 54.4407 14.3135 54.6197 14.5324V15.2787C54.4805 15.418 54.2916 15.5175 54.053 15.5772ZM54.5203 11.9354C54.3413 11.8757 54.2121 11.7961 54.1325 11.6966C54.0331 11.5772 53.9834 11.4578 53.9834 11.3384C53.9834 11.1991 54.0331 11.0797 54.1325 10.9802C54.2121 10.8608 54.3413 10.7812 54.5203 10.7414C55.0372 10.7414 55.5641 10.7215 56.1009 10.6817C56.6179 10.6419 57.1349 10.5921 57.6518 10.5324L57.7711 6.77123C57.791 6.57222 57.8506 6.41304 57.9501 6.29363C58.0693 6.17423 58.1986 6.11451 58.3378 6.11451C58.4769 6.09461 58.6062 6.13443 58.7255 6.23393C58.8448 6.33344 58.9243 6.49262 58.9641 6.71153L58.8448 10.413L60.6342 10.3235C60.8529 10.3434 61.012 10.413 61.1114 10.5324C61.2108 10.6518 61.2605 10.7812 61.2605 10.9205C61.2605 11.0598 61.2009 11.1891 61.0816 11.3085C60.9822 11.4279 60.8331 11.4976 60.6342 11.5175L58.7851 11.6071C58.7454 12.9603 58.7454 14.3036 58.7851 15.6369C58.8448 16.9503 58.984 18.2737 59.2027 19.6071C59.2225 19.826 59.1828 19.9951 59.0834 20.1145C59.0038 20.2339 58.8945 20.3036 58.7553 20.3235C58.636 20.3633 58.5068 20.3434 58.3676 20.2638C58.2284 20.1842 58.1191 20.0548 58.0395 19.8757C57.8208 18.5026 57.6816 17.1493 57.622 15.816C57.5822 14.4628 57.5822 13.0996 57.622 11.7265C57.105 11.7862 56.5881 11.8359 56.0711 11.8757C55.5542 11.9155 55.0372 11.9354 54.5203 11.9354ZM63.7861 13.8757C63.8059 13.8956 63.8258 13.9056 63.8457 13.9056C64.3627 13.9454 64.8001 14.1643 65.158 14.5623C65.5357 14.9404 65.8042 15.3981 65.9632 15.9354C66.1223 16.4727 66.162 17.0299 66.0825 17.6071C66.0229 18.1842 65.8141 18.6817 65.4562 19.0996C65.2773 19.2986 65.0486 19.4478 64.7702 19.5473C64.5118 19.6269 64.2334 19.6867 63.9352 19.7265C63.6568 19.7464 63.3685 19.7464 63.0703 19.7265C62.7919 19.7066 62.5434 19.6867 62.3247 19.6668C61.6288 19.627 61.0919 19.418 60.7142 19.0399C60.3563 18.6618 60.1376 18.214 60.058 17.6966C59.9586 17.1593 59.9884 16.612 60.1475 16.0548C60.3066 15.4777 60.5551 14.9802 60.8931 14.5623C61.2311 14.1444 61.6487 13.8558 62.1457 13.6966C62.6428 13.5374 63.1896 13.5971 63.7861 13.8757ZM63.3089 15.1593C63.11 15.2588 62.941 15.2787 62.8019 15.219C62.6627 15.1394 62.5633 15.0299 62.5036 14.8906C62.1855 14.9702 61.9171 15.1593 61.6984 15.4578C61.4995 15.7364 61.3504 16.0548 61.251 16.413C61.1715 16.7513 61.1516 17.0897 61.1913 17.428C61.251 17.7464 61.3902 17.9752 61.6089 18.1145C61.927 18.3334 62.2948 18.4628 62.7124 18.5026C63.1299 18.5424 63.5176 18.5424 63.8755 18.5026C64.2931 18.4429 64.5913 18.2737 64.7702 17.9951C64.9492 17.7165 65.0287 17.3981 65.0088 17.0399C64.989 16.6817 64.8995 16.3334 64.7404 15.9951C64.5814 15.6369 64.3726 15.3683 64.1141 15.1892C64.0744 15.1494 63.9948 15.1095 63.8755 15.0697H63.6966C63.5773 15.0697 63.448 15.0996 63.3089 15.1593ZM67.7624 13.4876C67.9215 13.4876 68.0706 13.4876 68.2098 13.4876C68.3688 13.4677 68.518 13.4578 68.6571 13.4578C68.6571 13.617 68.6571 13.7762 68.6571 13.9354C68.6571 14.0946 68.6671 14.2538 68.687 14.413C68.687 14.3732 68.687 14.3533 68.687 14.3533C68.7068 14.3334 68.7168 14.3036 68.7168 14.2638C68.7963 14.0449 68.8957 13.816 69.015 13.5772C69.1542 13.3185 69.3133 13.0996 69.4922 12.9205C69.6712 12.7215 69.87 12.5921 70.0887 12.5324C70.3273 12.4727 70.5957 12.5125 70.894 12.6518C71.1524 12.7712 71.3612 13.0299 71.5203 13.4279C71.6992 13.826 71.8483 14.2936 71.9676 14.8309C72.2261 14.214 72.5741 13.7165 73.0115 13.3384L73.7571 13.2787C74.2343 13.617 74.612 14.0548 74.8904 14.5921C75.1886 15.1295 75.4173 15.7066 75.5764 16.3235C75.7354 16.9404 75.8448 17.5673 75.9044 18.2041C75.984 18.8409 76.0436 19.428 76.0834 19.9653C76.0436 20.1444 75.974 20.2837 75.8746 20.3832C75.7752 20.4827 75.6559 20.5324 75.5167 20.5324C75.3974 20.5324 75.2781 20.4827 75.1588 20.3832C75.0395 20.3036 74.9501 20.1842 74.8904 20.025C74.8705 19.7663 74.8208 19.3583 74.7413 18.8011C74.6816 18.2439 74.5922 17.6767 74.4729 17.0996C74.3536 16.5026 74.2044 15.9653 74.0255 15.4877C73.8466 14.9901 73.6477 14.6717 73.429 14.5324C73.2103 14.7513 73.0413 15.0996 72.922 15.5772C72.8226 16.0548 72.7431 16.5722 72.6834 17.1294C72.6436 17.6668 72.6138 18.1941 72.5939 18.7115C72.5939 19.209 72.5939 19.5971 72.5939 19.8757L71.401 20.1145V19.9354C71.3016 18.9205 71.1922 17.8857 71.0729 16.8309C70.9536 15.7762 70.715 14.7613 70.3571 13.7862C70.1185 13.8658 69.9296 14.1842 69.7905 14.7414C69.6712 15.2986 69.5817 15.9255 69.522 16.622C69.4624 17.2986 69.4226 17.9653 69.4027 18.622C69.3829 19.2588 69.3729 19.6966 69.3729 19.9354C69.2735 19.9354 69.1641 19.9354 69.0449 19.9354C68.9454 19.9354 68.8361 19.9454 68.7168 19.9653L68.18 20.1444V19.9951C67.9612 18.9006 67.7823 17.8359 67.6431 16.8011C67.5238 15.7464 67.4642 14.6518 67.4642 13.5175H67.5835C67.6232 13.5175 67.6531 13.5175 67.6729 13.5175C67.6928 13.4976 67.7226 13.4876 67.7624 13.4876ZM82.7344 16.2936C82.5157 16.4727 82.2472 16.5921 81.9291 16.6518C81.611 16.6916 81.273 16.7115 80.9151 16.7115C80.5771 16.7115 80.2291 16.7115 79.8712 16.7115C79.5134 16.6916 79.1753 16.7115 78.8572 16.7712C78.6982 16.8906 78.5391 16.9503 78.38 16.9503H78.2906C78.4297 17.4678 78.6882 17.9056 79.066 18.2638C79.4438 18.6021 79.921 18.7712 80.4976 18.7712C80.8952 18.7712 81.263 18.7215 81.6011 18.622C81.9589 18.5026 82.3069 18.3633 82.6449 18.2041C82.6847 18.2041 82.7344 18.1742 82.794 18.1145C82.8736 17.9354 82.9829 17.7961 83.1221 17.6966C83.1817 17.6568 83.2414 17.6369 83.301 17.6369C83.3607 17.617 83.4104 17.5971 83.4502 17.5772C83.6092 17.6767 83.7484 17.7762 83.8677 17.8757C84.0069 17.9553 84.146 18.0449 84.2852 18.1444C84.2455 18.4827 84.0168 18.7911 83.5993 19.0697C83.1817 19.3285 82.7045 19.5374 82.1677 19.6966C81.6508 19.8558 81.1239 19.9454 80.587 19.9653C80.0701 20.0051 79.6824 19.9553 79.4239 19.816C78.8672 19.5175 78.4099 19.1991 78.052 18.8608C77.714 18.5225 77.4555 18.1543 77.2765 17.7563C77.1175 17.3583 77.028 16.9205 77.0081 16.4429C76.9882 15.9653 77.028 15.418 77.1274 14.8011C77.1871 14.3633 77.3262 14.0051 77.545 13.7265C77.7637 13.4479 78.0221 13.2389 78.3204 13.0996C78.6385 12.9603 78.9765 12.8807 79.3344 12.8608C79.7122 12.8409 80.08 12.8608 80.4379 12.9205C80.7759 12.9603 81.0642 13.1095 81.3028 13.3682C81.5613 13.627 81.8297 13.8658 82.1081 14.0847C82.2472 14.1842 82.3964 14.3334 82.5554 14.5324C82.7145 14.7115 82.8338 14.9106 82.9133 15.1295C83.0127 15.3285 83.0525 15.5374 83.0326 15.7563C83.0326 15.9553 82.9332 16.1344 82.7344 16.2936ZM80.08 14.0847C79.7818 13.9454 79.5233 13.9056 79.3046 13.9653C79.0859 14.0051 78.897 14.1145 78.7379 14.2936C78.5987 14.4727 78.4795 14.6916 78.38 14.9503C78.3005 15.1891 78.2409 15.4379 78.2011 15.6966C78.4795 15.5971 78.7677 15.5374 79.066 15.5175C79.3642 15.4976 79.6625 15.4877 79.9607 15.4877C80.259 15.4877 80.5572 15.4877 80.8554 15.4877C81.1736 15.4877 81.4718 15.4578 81.7502 15.3981C81.6706 15.2787 81.5613 15.1593 81.4221 15.0399C81.2829 14.9006 81.1338 14.7712 80.9747 14.6518C80.8157 14.5324 80.6566 14.423 80.4976 14.3235C80.3385 14.224 80.1993 14.1444 80.08 14.0847ZM85.2319 13.3981C85.1723 13.219 85.1624 13.0598 85.2021 12.9205C85.2419 12.7812 85.3115 12.6817 85.4109 12.622C85.5302 12.5623 85.6594 12.5424 85.7986 12.5623C85.9577 12.5623 86.1068 12.622 86.246 12.7414C86.3255 12.8807 86.3951 13.01 86.4547 13.1294C86.5343 13.2489 86.6039 13.3782 86.6635 13.5175C86.7629 13.3185 86.912 13.1195 87.1109 12.9205C87.5483 12.5026 87.9758 12.2041 88.3933 12.025C88.8109 11.8459 89.1986 11.7862 89.5565 11.8459C89.9144 11.9056 90.2126 12.0946 90.4512 12.413C90.7097 12.7314 90.8986 13.1892 91.0178 13.7862C91.0377 14.0051 90.998 14.1742 90.8986 14.2936C90.819 14.413 90.7097 14.4926 90.5705 14.5324C90.4512 14.5523 90.322 14.5225 90.1828 14.4429C90.0436 14.3633 89.9342 14.2339 89.8547 14.0548C89.7155 13.418 89.4968 13.0598 89.1986 12.9802C88.9003 12.8807 88.4927 13.1394 87.9758 13.7563C87.7571 14.0349 87.5682 14.3533 87.4091 14.7115C87.2699 15.0697 87.1506 15.4479 87.0512 15.8459C87.0711 16.1842 87.0711 16.5225 87.0512 16.8608C87.0512 17.1991 87.0711 17.5374 87.1109 17.8757C87.1506 18.1742 87.1805 18.4628 87.2003 18.7414C87.2401 19.0001 87.2401 19.2887 87.2003 19.6071C87.0015 19.6071 86.8027 19.617 86.6039 19.6369C86.405 19.6369 86.2062 19.6469 86.0074 19.6668C85.8682 19.2091 85.7887 18.6518 85.7688 17.9951C85.7489 17.3185 85.7887 16.6319 85.8881 15.9354C85.8881 15.4777 85.8384 15.0399 85.739 14.622C85.6594 14.2041 85.4904 13.7961 85.2319 13.3981ZM97.3623 15.5772C96.9845 15.5971 96.7558 15.4479 96.6763 15.1295C96.3582 15.03 95.9705 15.02 95.5132 15.0996C95.0559 15.1593 94.6681 15.2489 94.35 15.3683C94.7874 15.5474 95.2845 15.7066 95.8412 15.8459C96.4178 15.9653 96.9646 16.1145 97.4816 16.2936C97.9985 16.4727 98.4459 16.7016 98.8236 16.9802C99.2213 17.2588 99.4697 17.627 99.5691 18.0847L99.3307 18.7712C98.933 19.0299 98.3465 19.2488 97.571 19.4279C96.7956 19.607 96.0003 19.7066 95.1851 19.7265C94.3898 19.7265 93.6541 19.6269 92.9781 19.4279C92.3021 19.2289 91.8746 18.8707 91.6957 18.3533L91.8746 17.816L92.2325 17.4578C92.3717 17.3782 92.5108 17.3484 92.65 17.3683C92.7892 17.3683 92.9085 17.4081 93.0079 17.4877C93.1073 17.5673 93.167 17.6767 93.1869 17.816C93.2266 17.9553 93.2067 18.0946 93.1272 18.2339C93.4652 18.3533 93.8529 18.4429 94.2904 18.5026C94.7278 18.5424 95.1751 18.5523 95.6324 18.5324C96.0898 18.5125 96.5371 18.4628 96.9745 18.3832C97.4318 18.3036 97.8394 18.1842 98.1973 18.025C97.9587 17.7662 97.5511 17.5573 96.9745 17.3981C96.4178 17.2389 95.8412 17.0797 95.2447 16.9205C94.6483 16.7613 94.1015 16.5822 93.6044 16.3832C93.1073 16.1842 92.819 15.9155 92.7395 15.5772C92.6799 15.3384 92.7395 15.1095 92.9184 14.8906C93.0974 14.6717 93.3459 14.4926 93.6641 14.3533C94.0021 14.1941 94.3798 14.0747 94.7974 13.9951C95.2149 13.9155 95.6225 13.8757 96.0202 13.8757C96.4377 13.8757 96.8155 13.9354 97.1535 14.0548C97.4915 14.1543 97.75 14.3135 97.9289 14.5324V15.2787C97.7897 15.418 97.6008 15.5175 97.3623 15.5772ZM1.05379 36.4827C1.09355 36.1444 1.23273 35.9354 1.47133 35.8558C1.7298 35.7563 1.94851 35.8359 2.12746 36.0946C2.26664 35.8558 2.43564 35.6468 2.63447 35.4677C2.8333 35.2886 3.06195 35.1792 3.32043 35.1394C3.55902 35.0996 3.8175 35.0996 4.09586 35.1394C4.37422 35.1593 4.62275 35.219 4.84146 35.3185C5.29877 35.4777 5.6666 35.5971 5.94496 35.6767C6.2432 35.7563 6.50168 35.8558 6.72039 35.9752C6.9391 36.0946 7.13793 36.2538 7.31687 36.4528C7.5157 36.6319 7.73441 36.9105 7.97301 37.2887C8.27125 37.7464 8.31101 38.214 8.0923 38.6916C7.89347 39.1693 7.57535 39.617 7.13793 40.0349C6.70051 40.4329 6.21338 40.7812 5.67654 41.0797C5.15959 41.3782 4.74205 41.5872 4.42392 41.7066C4.26486 41.7663 4.08592 41.7762 3.88709 41.7364C3.70814 41.6966 3.51926 41.6668 3.32043 41.6469L2.87306 41.3483L2.75377 41.1394C2.79353 41.6369 2.8333 42.1344 2.87306 42.6319C2.93271 43.1294 2.97248 43.5971 2.99236 44.0349C3.01224 44.4926 2.99236 44.9106 2.93271 45.2887C2.89295 45.6867 2.79353 46.025 2.63447 46.3036L1.65027 46.5125C1.47133 46.2538 1.34209 45.8857 1.26256 45.4081C1.20291 44.9305 1.17308 44.3931 1.17308 43.7961C1.17308 43.1991 1.18302 42.5623 1.20291 41.8857C1.24267 41.209 1.26256 40.5424 1.26256 39.8857C1.28244 39.209 1.28244 38.5822 1.26256 38.0051C1.24267 37.4081 1.17308 36.9006 1.05379 36.4827ZM3.5292 36.3036C3.15142 36.7215 2.90289 37.2389 2.78359 37.8558C2.68418 38.4528 2.65435 39.0996 2.69412 39.7961C2.8333 39.7165 2.99236 39.6966 3.17131 39.7364C3.35025 39.7563 3.48943 39.8757 3.58885 40.0946L3.76779 40.4827C4.14556 40.5225 4.5134 40.4727 4.87129 40.3334C5.22918 40.1742 5.5473 39.9752 5.82566 39.7364C6.10402 39.4777 6.33267 39.1792 6.51162 38.8409C6.71045 38.5026 6.82974 38.1543 6.86951 37.7961C6.49174 37.3185 5.99467 36.9503 5.3783 36.6916C4.78181 36.4329 4.16545 36.3036 3.5292 36.3036ZM10.372 36.4827C10.2527 36.6618 10.1135 36.7812 9.95443 36.8409C9.81528 36.8807 9.68604 36.8707 9.56674 36.811C9.44745 36.7513 9.34803 36.6518 9.2685 36.5125C9.20885 36.3533 9.20885 36.1742 9.2685 35.9752C9.52698 35.5772 9.8451 35.2688 10.2228 35.0498C10.6205 34.811 11.0281 34.6618 11.4456 34.6021C11.8831 34.5424 12.3205 34.5623 12.7579 34.6618C13.2152 34.7414 13.6327 34.8906 14.0105 35.1095C14.2093 35.209 14.3585 35.3583 14.4579 35.5573C14.5772 35.7563 14.6965 35.9553 14.8158 36.1543C15.0146 36.4528 15.1637 36.811 15.2631 37.229C15.3824 37.627 15.462 38.0449 15.5017 38.4827C15.5415 38.9205 15.5614 39.3583 15.5614 39.7961C15.5614 40.2339 15.5614 40.622 15.5614 40.9603L14.4281 41.2289C14.4082 41.2289 14.3883 41.2389 14.3684 41.2588V41.1394C14.3286 41.0598 14.3088 41.02 14.3088 41.02C14.2093 41.1593 14.0901 41.2488 13.9509 41.2886C13.3146 41.5075 12.6485 41.5971 11.9527 41.5573C11.2766 41.5175 10.7299 41.3583 10.3123 41.0797C9.89481 40.7812 9.6761 40.3832 9.65622 39.8857C9.65622 39.3881 10.0141 38.8011 10.7299 38.1245C10.9486 37.9255 11.217 37.8061 11.5351 37.7663C11.8532 37.7066 12.1813 37.7165 12.5193 37.7961C12.8573 37.8558 13.1754 37.9653 13.4737 38.1245C13.7918 38.2638 14.0602 38.4329 14.2789 38.6319C14.2193 37.9553 14.0602 37.3384 13.8018 36.7812C13.6626 36.4429 13.4439 36.1842 13.1456 36.0051C12.8474 35.826 12.5293 35.7265 12.1912 35.7066C11.8532 35.6867 11.5152 35.7464 11.1772 35.8857C10.8392 36.0051 10.5708 36.2041 10.372 36.4827ZM13.593 40.1543C13.7322 40.1145 13.8515 40.1145 13.9509 40.1543C13.8515 39.9553 13.7421 39.7961 13.6228 39.6767C13.3047 39.3185 12.9866 39.0996 12.6684 39.02C12.3503 38.9205 12.062 38.9105 11.8035 38.9901C11.5649 39.0498 11.3661 39.1693 11.207 39.3484C11.0679 39.5076 10.9983 39.6767 10.9983 39.8558C10.9983 40.0349 11.0977 40.1842 11.2965 40.3036C11.4953 40.423 11.8135 40.4727 12.2509 40.4528C12.5491 40.4329 12.7778 40.4031 12.9368 40.3633C13.0959 40.3235 13.3146 40.2538 13.593 40.1543ZM15.4123 40.6319C15.452 40.7314 15.462 40.7215 15.4421 40.6021L15.4123 40.6319ZM16.7863 35.6767C16.8061 35.4976 16.8559 35.3483 16.9354 35.2289C17.0348 35.1095 17.1442 35.0399 17.2634 35.02C17.3827 34.9802 17.502 34.9901 17.6213 35.0498C17.7605 35.1096 17.8699 35.2289 17.9494 35.408C18.0886 36.1643 18.3272 36.9205 18.6652 37.6767C19.0231 38.4329 19.4506 39.0996 19.9476 39.6767C20.0868 39.5971 20.2061 39.4578 20.3055 39.2588C20.4248 39.0399 20.5242 38.7912 20.6038 38.5125C20.7032 38.2339 20.7827 37.9553 20.8424 37.6767C20.902 37.3782 20.9517 37.1195 20.9915 36.9006C20.9716 36.4429 20.9617 35.9553 20.9617 35.4379C20.9815 34.9006 21.071 34.5125 21.2301 34.2737L21.916 34.0051C22.254 34.1245 22.433 34.3434 22.4529 34.6618C22.4926 34.9603 22.4628 35.2489 22.3634 35.5275C22.3435 35.7066 22.3236 35.8956 22.3037 36.0946C22.3037 36.2737 22.2839 36.4528 22.2441 36.6319C22.2242 37.1692 22.1944 37.7066 22.1546 38.2439C22.1347 38.7812 22.1049 39.3085 22.0651 39.826C22.0055 40.622 21.9359 41.3185 21.8564 41.9155C21.7768 42.5324 21.6973 43.0996 21.6178 43.617C21.5581 44.1344 21.4985 44.6319 21.4388 45.1095C21.3991 45.607 21.3792 46.1344 21.3792 46.6917C21.3394 46.8708 21.2698 47.01 21.1704 47.1095C21.071 47.209 20.9517 47.2588 20.8125 47.2588C20.6932 47.2588 20.5739 47.209 20.4546 47.1095C20.3353 47.0299 20.2459 46.9106 20.1862 46.7514C20.1862 46.0946 20.2359 45.4379 20.3353 44.7812C20.4348 44.1444 20.5242 43.4976 20.6038 42.8409C20.6435 42.4429 20.6734 42.0548 20.6932 41.6767C20.733 41.2986 20.7728 40.9105 20.8125 40.5125C20.4149 40.8906 19.9775 40.9603 19.5003 40.7215C19.043 40.4827 18.6155 40.015 18.2178 39.3185C18.0588 39.02 17.9196 38.7613 17.8003 38.5424C17.7009 38.3036 17.5816 38.0349 17.4424 37.7364C17.2833 37.3981 17.1442 37.0598 17.0249 36.7215C16.9254 36.3832 16.8459 36.0349 16.7863 35.6767ZM22.3336 35.617V35.5872V35.617ZM30.2354 36.4827C30.1161 36.6618 29.9769 36.7812 29.8179 36.8409C29.6787 36.8807 29.5494 36.8707 29.4301 36.811C29.3108 36.7513 29.2114 36.6518 29.1319 36.5125C29.0723 36.3533 29.0723 36.1742 29.1319 35.9752C29.3904 35.5772 29.7085 35.2688 30.0863 35.0498C30.4839 34.811 30.8915 34.6618 31.3091 34.6021C31.7465 34.5424 32.1839 34.5623 32.6213 34.6618C33.0786 34.7414 33.4962 34.8906 33.874 35.1095C34.0728 35.209 34.2219 35.3583 34.3213 35.5573C34.4406 35.7563 34.5599 35.9553 34.6792 36.1543C34.878 36.4528 35.0272 36.811 35.1266 37.229C35.2459 37.627 35.3254 38.0449 35.3652 38.4827C35.4049 38.9205 35.4248 39.3583 35.4248 39.7961C35.4248 40.2339 35.4248 40.622 35.4248 40.9603L34.2915 41.2289C34.2716 41.2289 34.2517 41.2389 34.2318 41.2588V41.1394C34.1921 41.0598 34.1722 41.02 34.1722 41.02C34.0728 41.1593 33.9535 41.2488 33.8143 41.2886C33.1781 41.5075 32.512 41.5971 31.8161 41.5573C31.1401 41.5175 30.5933 41.3583 30.1757 41.0797C29.7582 40.7812 29.5395 40.3832 29.5196 39.8857C29.5196 39.3881 29.8775 38.8011 30.5933 38.1245C30.812 37.9255 31.0804 37.8061 31.3985 37.7663C31.7167 37.7066 32.0447 37.7165 32.3827 37.7961C32.7207 37.8558 33.0389 37.9653 33.3371 38.1245C33.6552 38.2638 33.9237 38.4329 34.1424 38.6319C34.0827 37.9553 33.9237 37.3384 33.6652 36.7812C33.526 36.4429 33.3073 36.1842 33.009 36.0051C32.7108 35.826 32.3927 35.7265 32.0547 35.7066C31.7167 35.6867 31.3787 35.7464 31.0406 35.8857C30.7026 36.0051 30.4342 36.2041 30.2354 36.4827ZM33.4564 40.1543C33.5956 40.1145 33.7149 40.1145 33.8143 40.1543C33.7149 39.9553 33.6055 39.7961 33.4862 39.6767C33.1681 39.3185 32.85 39.0996 32.5319 39.02C32.2137 38.9205 31.9254 38.9105 31.667 38.9901C31.4284 39.0498 31.2295 39.1693 31.0705 39.3484C30.9313 39.5076 30.8617 39.6767 30.8617 39.8558C30.8617 40.0349 30.9611 40.1842 31.1599 40.3036C31.3588 40.423 31.6769 40.4727 32.1143 40.4528C32.4126 40.4329 32.6412 40.4031 32.8003 40.3633C32.9593 40.3235 33.1781 40.2538 33.4564 40.1543ZM35.2757 40.6319C35.3155 40.7314 35.3254 40.7215 35.3055 40.6021L35.2757 40.6319ZM42.2865 37.4678C41.9087 37.4877 41.68 37.3384 41.6005 37.02C41.2824 36.9205 40.8947 36.9106 40.4374 36.9902C39.9801 37.0499 39.5923 37.1394 39.2742 37.2588C39.7116 37.4379 40.2087 37.5971 40.7654 37.7364C41.342 37.8558 41.8888 38.0051 42.4058 38.1842C42.9227 38.3633 43.3701 38.5921 43.7479 38.8707C44.1455 39.1493 44.394 39.5175 44.4935 39.9752L44.2549 40.6618C43.8572 40.9205 43.2707 41.1394 42.4952 41.3185C41.7198 41.4976 40.9245 41.5971 40.1093 41.617C39.314 41.617 38.5783 41.5175 37.9023 41.3185C37.2263 41.1195 36.7988 40.7613 36.6199 40.2439L36.7988 39.7066L37.1567 39.3484C37.2959 39.2688 37.4351 39.2389 37.5742 39.2588C37.7134 39.2588 37.8327 39.2986 37.9321 39.3782C38.0315 39.4578 38.0912 39.5673 38.1111 39.7066C38.1508 39.8459 38.131 39.9852 38.0514 40.1245C38.3894 40.2439 38.7772 40.3334 39.2146 40.3931C39.652 40.4329 40.0994 40.4429 40.5567 40.423C41.014 40.4031 41.4613 40.3533 41.8988 40.2737C42.3561 40.1941 42.7637 40.0747 43.1215 39.9155C42.883 39.6568 42.4754 39.4479 41.8988 39.2887C41.342 39.1295 40.7654 38.9702 40.1689 38.811C39.5725 38.6518 39.0257 38.4727 38.5286 38.2737C38.0315 38.0747 37.7432 37.8061 37.6637 37.4678C37.6041 37.2289 37.6637 37.0001 37.8427 36.7812C38.0216 36.5623 38.2701 36.3832 38.5883 36.2439C38.9263 36.0847 39.304 35.9653 39.7216 35.8857C40.1391 35.8061 40.5467 35.7663 40.9444 35.7663C41.3619 35.7663 41.7397 35.826 42.0777 35.9454C42.4157 36.0449 42.6742 36.2041 42.8531 36.423V37.1693C42.714 37.3086 42.5251 37.4081 42.2865 37.4678ZM51.8621 26.811C51.882 26.612 51.9417 26.4528 52.0411 26.3334C52.1604 26.214 52.2896 26.1543 52.4288 26.1543C52.568 26.1344 52.6972 26.1742 52.8165 26.2737C52.9358 26.3732 53.0153 26.5324 53.0551 26.7513C53.075 27.9454 53.0849 28.9901 53.0849 29.8857C53.1048 30.7812 53.1147 31.5971 53.1147 32.3334C53.1147 33.0697 53.1147 33.7762 53.1147 34.4528C53.1346 35.1095 53.1446 35.8061 53.1446 36.5424C53.1446 37.2787 53.1446 38.0946 53.1446 38.9901C53.1645 39.8857 53.1843 40.9404 53.2042 42.1543C53.1645 42.3334 53.0949 42.4727 52.9955 42.5722C52.896 42.6717 52.7767 42.7215 52.6376 42.7215C52.5183 42.7215 52.399 42.6717 52.2797 42.5722C52.1604 42.4926 52.0709 42.3732 52.0112 42.214C51.9914 41.0001 51.9715 39.9454 51.9516 39.0498C51.9516 38.1543 51.9516 37.3384 51.9516 36.6021C51.9516 35.8658 51.9417 35.1692 51.9218 34.5125C51.9218 33.8558 51.9218 33.1593 51.9218 32.423C51.9218 31.6866 51.9118 30.8707 51.892 29.9752C51.892 29.0797 51.882 28.025 51.8621 26.811ZM54.9529 36.6319C54.9728 36.4329 55.0324 36.2737 55.1319 36.1543C55.2512 36.0349 55.3804 35.9752 55.5196 35.9752C55.6588 35.9553 55.788 35.9951 55.9073 36.0946C56.0266 36.1941 56.1061 36.3533 56.1459 36.5722C56.2652 37.3285 56.3447 38.0946 56.3845 38.8707C56.4441 39.627 56.5137 40.3832 56.5932 41.1394C56.6529 41.2787 56.6728 41.418 56.6529 41.5573C56.6529 41.5772 56.643 41.5971 56.6231 41.617C56.6231 41.6369 56.6231 41.6568 56.6231 41.6767L55.4599 41.5573C55.3406 40.7215 55.2512 39.9056 55.1915 39.1095C55.1517 38.2936 55.0722 37.4678 54.9529 36.6319ZM55.7582 32.3036C55.9371 32.4031 56.0564 32.5225 56.1161 32.6618C56.1757 32.8011 56.1856 32.9404 56.1459 33.0797C56.1061 33.219 56.0067 33.3285 55.8476 33.4081C55.7085 33.4678 55.5395 33.4678 55.3406 33.4081H55.3108L55.0722 33.3484C55.0921 33.1494 55.102 32.9503 55.102 32.7513C55.102 32.5523 55.102 32.3533 55.102 32.1543H55.1319C55.2114 32.1543 55.2909 32.1742 55.3705 32.214C55.4699 32.214 55.5991 32.2439 55.7582 32.3036ZM54.8114 33.826C54.6325 33.7663 54.5033 33.6867 54.4237 33.5872C54.3243 33.4678 54.2746 33.3483 54.2746 33.2289C54.2746 33.0896 54.3243 32.9702 54.4237 32.8707C54.5033 32.7513 54.6325 32.6717 54.8114 32.6319C55.3284 32.6319 55.8553 32.612 56.3921 32.5722C56.9091 32.5324 57.426 32.4827 57.943 32.423L58.0623 28.6618C58.0822 28.4628 58.1418 28.3036 58.2412 28.1842C58.3605 28.0648 58.4898 28.0051 58.6289 28.0051C58.7681 27.9852 58.8974 28.025 59.0167 28.1245C59.136 28.224 59.2155 28.3832 59.2553 28.6021L59.136 32.3036L60.9254 32.214C61.1441 32.2339 61.3032 32.3036 61.4026 32.423C61.502 32.5424 61.5517 32.6717 61.5517 32.811C61.5517 32.9503 61.4921 33.0797 61.3728 33.1991C61.2734 33.3185 61.1242 33.3882 60.9254 33.4081L59.0763 33.4976C59.0365 34.8508 59.0365 36.1941 59.0763 37.5275C59.136 38.8409 59.2751 40.1643 59.4939 41.4976C59.5137 41.7165 59.474 41.8857 59.3746 42.0051C59.295 42.1245 59.1857 42.1941 59.0465 42.214C58.9272 42.2538 58.798 42.2339 58.6588 42.1543C58.5196 42.0747 58.4102 41.9454 58.3307 41.7663C58.112 40.3931 57.9728 39.0399 57.9132 37.7065C57.8734 36.3533 57.8734 34.9901 57.9132 33.617C57.3962 33.6767 56.8793 33.7265 56.3623 33.7663C55.8454 33.8061 55.3284 33.826 54.8114 33.826ZM57.6949 33.826C57.5159 33.7663 57.3867 33.6867 57.3071 33.5872C57.2077 33.4678 57.158 33.3483 57.158 33.2289C57.158 33.0896 57.2077 32.9702 57.3071 32.8707C57.3867 32.7513 57.5159 32.6717 57.6949 32.6319C58.2118 32.6319 58.7387 32.612 59.2755 32.5722C59.7925 32.5324 60.3094 32.4827 60.8264 32.423L60.9457 28.6618C60.9656 28.4628 61.0252 28.3036 61.1246 28.1842C61.2439 28.0648 61.3732 28.0051 61.5124 28.0051C61.6515 27.9852 61.7808 28.025 61.9001 28.1245C62.0194 28.224 62.0989 28.3832 62.1387 28.6021L62.0194 32.3036L63.8088 32.214C64.0275 32.2339 64.1866 32.3036 64.286 32.423C64.3854 32.5424 64.4351 32.6717 64.4351 32.811C64.4351 32.9503 64.3755 33.0797 64.2562 33.1991C64.1568 33.3185 64.0076 33.3882 63.8088 33.4081L61.9597 33.4976C61.92 34.8508 61.92 36.1941 61.9597 37.5275C62.0194 38.8409 62.1585 40.1643 62.3773 41.4976C62.3971 41.7165 62.3574 41.8857 62.258 42.0051C62.1784 42.1245 62.0691 42.1941 61.9299 42.214C61.8106 42.2538 61.6814 42.2339 61.5422 42.1543C61.403 42.0747 61.2936 41.9454 61.2141 41.7663C60.9954 40.3931 60.8562 39.0399 60.7966 37.7065C60.7568 36.3533 60.7568 34.9901 60.7966 33.617C60.2796 33.6767 59.7627 33.7265 59.2457 33.7663C58.7288 33.8061 58.2118 33.826 57.6949 33.826ZM63.9782 26.811C63.9981 26.612 64.0578 26.4528 64.1572 26.3334C64.2765 26.214 64.4057 26.1543 64.5449 26.1543C64.6841 26.1344 64.8133 26.1742 64.9326 26.2737C65.0519 26.3732 65.1314 26.5324 65.1712 26.7513C65.1911 27.9454 65.201 28.9901 65.201 29.8857C65.2209 30.7812 65.2308 31.5971 65.2308 32.3334C65.2308 33.0697 65.2308 33.7762 65.2308 34.4528C65.2507 35.1095 65.2607 35.8061 65.2607 36.5424C65.2607 37.2787 65.2607 38.0946 65.2607 38.9901C65.2805 39.8857 65.3004 40.9404 65.3203 42.1543C65.2805 42.3334 65.211 42.4727 65.1115 42.5722C65.0121 42.6717 64.8928 42.7215 64.7536 42.7215C64.6343 42.7215 64.5151 42.6717 64.3958 42.5722C64.2765 42.4926 64.187 42.3732 64.1273 42.214C64.1075 41.0001 64.0876 39.9454 64.0677 39.0498C64.0677 38.1543 64.0677 37.3384 64.0677 36.6021C64.0677 35.8658 64.0578 35.1692 64.0379 34.5125C64.0379 33.8558 64.0379 33.1593 64.0379 32.423C64.0379 31.6866 64.0279 30.8707 64.008 29.9752C64.008 29.0797 63.9981 28.025 63.9782 26.811ZM71.8707 38.1842C71.652 38.3633 71.3836 38.4827 71.0654 38.5424C70.7473 38.5822 70.4093 38.6021 70.0514 38.6021C69.7134 38.6021 69.3655 38.6021 69.0076 38.6021C68.6497 38.5822 68.3117 38.6021 67.9936 38.6618C67.8345 38.7812 67.6754 38.8409 67.5164 38.8409H67.4269C67.5661 39.3583 67.8245 39.7961 68.2023 40.1543C68.5801 40.4926 69.0573 40.6618 69.6339 40.6618C70.0315 40.6618 70.3994 40.612 70.7374 40.5125C71.0953 40.3931 71.4432 40.2538 71.7812 40.0946C71.821 40.0946 71.8707 40.0648 71.9304 40.0051C72.0099 39.826 72.1192 39.6867 72.2584 39.5872C72.3181 39.5474 72.3777 39.5275 72.4374 39.5275C72.497 39.5076 72.5467 39.4877 72.5865 39.4678C72.7455 39.5673 72.8847 39.6668 73.004 39.7663C73.1432 39.8459 73.2824 39.9354 73.4216 40.0349C73.3818 40.3732 73.1531 40.6817 72.7356 40.9603C72.3181 41.219 71.8409 41.428 71.304 41.5872C70.7871 41.7464 70.2602 41.8359 69.7234 41.8558C69.2064 41.8956 68.8187 41.8459 68.5602 41.7066C68.0035 41.4081 67.5462 41.0897 67.1883 40.7514C66.8503 40.413 66.5918 40.0449 66.4129 39.6469C66.2538 39.2488 66.1643 38.811 66.1444 38.3334C66.1246 37.8558 66.1643 37.3085 66.2637 36.6916C66.3234 36.2538 66.4626 35.8956 66.6813 35.617C66.9 35.3384 67.1585 35.1295 67.4567 34.9901C67.7748 34.8508 68.1128 34.7713 68.4707 34.7514C68.8485 34.7315 69.2163 34.7514 69.5742 34.8111C69.9122 34.8509 70.2005 35.0001 70.4391 35.2588C70.6976 35.5175 70.966 35.7563 71.2444 35.9752C71.3836 36.0747 71.5327 36.224 71.6918 36.423C71.8508 36.6021 71.9701 36.8011 72.0496 37.02C72.1491 37.219 72.1888 37.4279 72.1689 37.6468C72.1689 37.8459 72.0695 38.025 71.8707 38.1842ZM69.2163 35.9752C68.9181 35.8359 68.6596 35.7961 68.4409 35.8558C68.2222 35.8956 68.0333 36.0051 67.8743 36.1842C67.7351 36.3633 67.6158 36.5822 67.5164 36.8409C67.4368 37.0797 67.3772 37.3284 67.3374 37.5872C67.6158 37.4876 67.9041 37.428 68.2023 37.4081C68.5006 37.3882 68.7988 37.3782 69.0971 37.3782C69.3953 37.3782 69.6935 37.3782 69.9918 37.3782C70.3099 37.3782 70.6081 37.3484 70.8865 37.2887C70.807 37.1693 70.6976 37.0498 70.5584 36.9304C70.4193 36.7911 70.2701 36.6618 70.1111 36.5424C69.952 36.423 69.7929 36.3135 69.6339 36.214C69.4748 36.1145 69.3356 36.0349 69.2163 35.9752ZM2.21693 58.3732C2.09763 58.5523 1.95845 58.6717 1.79939 58.7314C1.66021 58.7712 1.53097 58.7613 1.41168 58.7016C1.29238 58.6419 1.19297 58.5424 1.11343 58.4031C1.05379 58.2439 1.05379 58.0648 1.11343 57.8658C1.37191 57.4678 1.69004 57.1593 2.06781 56.9404C2.46547 56.7016 2.87306 56.5523 3.2906 56.4926C3.72802 56.4329 4.16545 56.4528 4.60287 56.5523C5.06017 56.6319 5.47771 56.7812 5.85549 57.0001C6.05431 57.0996 6.20343 57.2489 6.30285 57.4479C6.42215 57.6469 6.54144 57.8459 6.66074 58.0449C6.85957 58.3434 7.00869 58.7016 7.1081 59.1195C7.2274 59.5175 7.30693 59.9354 7.3467 60.3732C7.38646 60.8111 7.40634 61.2488 7.40634 61.6867C7.40634 62.1245 7.40634 62.5125 7.40634 62.8508L6.27302 63.1195C6.25314 63.1195 6.23326 63.1294 6.21338 63.1493V63.0299C6.17361 62.9503 6.15373 62.9105 6.15373 62.9105C6.05431 63.0499 5.93502 63.1394 5.79584 63.1792C5.15959 63.3981 4.49351 63.4877 3.79761 63.4479C3.1216 63.4081 2.57482 63.2489 2.15728 62.9702C1.73974 62.6717 1.52103 62.2737 1.50115 61.7762C1.50115 61.2787 1.85904 60.6916 2.57482 60.015C2.79353 59.816 3.06195 59.6966 3.38008 59.6568C3.6982 59.5971 4.02627 59.6071 4.36427 59.6867C4.70228 59.7464 5.02041 59.8558 5.31865 60.015C5.63677 60.1543 5.90519 60.3235 6.1239 60.5225C6.06426 59.8459 5.90519 59.2289 5.64672 58.6717C5.50754 58.3334 5.28883 58.0747 4.99058 57.8956C4.69234 57.7165 4.37422 57.617 4.03621 57.5971C3.6982 57.5772 3.36019 57.6369 3.02218 57.7762C2.68418 57.8956 2.41576 58.0946 2.21693 58.3732ZM5.43795 62.0449C5.57713 62.0051 5.69642 62.0051 5.79584 62.0449C5.69642 61.8459 5.58707 61.6867 5.46777 61.5673C5.14965 61.209 4.83152 60.9901 4.5134 60.9105C4.19527 60.811 3.90697 60.8011 3.64849 60.8807C3.4099 60.9404 3.21107 61.0598 3.05201 61.2389C2.91283 61.3981 2.84324 61.5672 2.84324 61.7464C2.84324 61.9255 2.94265 62.0747 3.14148 62.1941C3.34031 62.3135 3.65843 62.3633 4.09586 62.3434C4.3941 62.3235 4.62275 62.2936 4.78181 62.2538C4.94088 62.214 5.15959 62.1444 5.43795 62.0449ZM7.25722 62.5225C7.29699 62.622 7.30693 62.612 7.28705 62.4926L7.25722 62.5225ZM14.268 59.3583C13.8902 59.3782 13.6616 59.229 13.582 58.9106C13.2639 58.8111 12.8762 58.8011 12.4189 58.8807C11.9616 58.9404 11.5739 59.0299 11.2558 59.1494C11.6932 59.3285 12.1902 59.4877 12.747 59.627C13.3236 59.7464 13.8703 59.8956 14.3873 60.0747C14.9043 60.2538 15.3516 60.4827 15.7294 60.7613C16.127 61.0399 16.3756 61.4081 16.475 61.8658L16.2364 62.5523C15.8387 62.811 15.2522 63.0299 14.4768 63.209C13.7013 63.3881 12.906 63.4877 12.0908 63.5076C11.2955 63.5076 10.5599 63.408 9.88385 63.209C9.20784 63.01 8.78036 62.6518 8.60141 62.1344L8.78036 61.5971L9.13825 61.2389C9.27743 61.1593 9.41661 61.1295 9.55579 61.1494C9.69497 61.1494 9.81426 61.1892 9.91368 61.2688C10.0131 61.3484 10.0727 61.4578 10.0926 61.5971C10.1324 61.7364 10.1125 61.8757 10.033 62.015C10.371 62.1344 10.7587 62.224 11.1961 62.2837C11.6335 62.3235 12.0809 62.3334 12.5382 62.3135C12.9955 62.2936 13.4429 62.2439 13.8803 62.1643C14.3376 62.0847 14.7452 61.9653 15.1031 61.8061C14.8645 61.5473 14.4569 61.3384 13.8803 61.1792C13.3236 61.02 12.747 60.8608 12.1505 60.7016C11.554 60.5424 11.0072 60.3633 10.5102 60.1643C10.0131 59.9653 9.72479 59.6966 9.64526 59.3583C9.58561 59.1195 9.64526 58.8906 9.8242 58.6717C10.0031 58.4528 10.2517 58.2737 10.5698 58.1344C10.9078 57.9752 11.2856 57.8558 11.7031 57.7762C12.1207 57.6966 12.5283 57.6568 12.9259 57.6568C13.3435 57.6568 13.7212 57.7165 14.0592 57.8359C14.3972 57.9354 14.6557 58.0946 14.8347 58.3135V59.0598C14.6955 59.1991 14.5066 59.2986 14.268 59.3583ZM20.4437 55.7165C20.2648 55.6568 20.1355 55.5772 20.056 55.4777C19.9566 55.3583 19.9069 55.2389 19.9069 55.1195C19.9069 54.9802 19.9566 54.8608 20.056 54.7613C20.1355 54.6419 20.2648 54.5623 20.4437 54.5225C20.9607 54.5225 21.4876 54.5026 22.0244 54.4628C22.5413 54.423 23.0583 54.3732 23.5752 54.3135L23.6945 50.5523C23.7144 50.3533 23.7741 50.1941 23.8735 50.0747C23.9928 49.9553 24.122 49.8956 24.2612 49.8956C24.4004 49.8757 24.5296 49.9155 24.6489 50.015C24.7682 50.1145 24.8477 50.2737 24.8875 50.4926L24.7682 54.1941L26.5577 54.1046C26.7764 54.1245 26.9354 54.1941 27.0349 54.3135C27.1343 54.4329 27.184 54.5623 27.184 54.7016C27.184 54.8409 27.1243 54.9702 27.005 55.0896C26.9056 55.209 26.7565 55.2787 26.5577 55.2986L24.7086 55.3882C24.6688 56.7414 24.6688 58.0847 24.7086 59.418C24.7682 60.7314 24.9074 62.0548 25.1261 63.3882C25.146 63.6071 25.1062 63.7762 25.0068 63.8956C24.9273 64.015 24.8179 64.0847 24.6787 64.1046C24.5594 64.1444 24.4302 64.1245 24.291 64.0449C24.1518 63.9653 24.0425 63.8359 23.963 63.6568C23.7443 62.2837 23.6051 60.9304 23.5454 59.5971C23.5057 58.2439 23.5057 56.8807 23.5454 55.5076C23.0285 55.5673 22.5115 55.617 21.9946 55.6568C21.4776 55.6966 20.9607 55.7165 20.4437 55.7165ZM25.713 46.8508C25.6335 46.6518 25.6335 46.4827 25.713 46.3434C25.7727 46.1842 25.8721 46.0847 26.0113 46.0449C26.1505 45.9852 26.2896 45.9852 26.4288 46.0449C26.5879 46.0847 26.7171 46.1941 26.8165 46.3732C27.1546 47.1494 27.3931 48.0548 27.5323 49.0896C27.6715 50.1245 27.751 51.1892 27.7709 52.2837C27.8107 53.3782 27.8206 54.4528 27.8007 55.5076C27.7809 56.5424 27.7709 57.4479 27.7709 58.224V59.3583C27.9697 58.8011 28.2083 58.3334 28.4867 57.9553C28.7651 57.5573 29.113 57.3384 29.5305 57.2986C29.9481 57.2588 30.3358 57.2488 30.6937 57.2687C31.0516 57.2886 31.3697 57.4678 31.6481 57.8061C31.8469 58.0449 31.9861 58.413 32.0656 58.9106C32.165 59.3882 32.2247 59.9056 32.2446 60.4628C32.2644 61.0001 32.2545 61.5275 32.2147 62.0449C32.1948 62.5623 32.1849 62.9603 32.1849 63.2389C32.1451 63.418 32.0755 63.5573 31.9761 63.6568C31.8767 63.7563 31.7574 63.8061 31.6182 63.8061C31.4989 63.8061 31.3796 63.7663 31.2604 63.6867C31.1411 63.5872 31.0516 63.4578 30.9919 63.2986C31.0118 62.821 31.0218 62.3434 31.0218 61.8658C31.0416 61.3683 31.0317 60.8807 30.9919 60.4031C30.9919 60.3434 30.982 60.214 30.9621 60.015C30.9422 59.7961 30.9124 59.5772 30.8726 59.3583C30.8528 59.1195 30.8229 58.9105 30.7832 58.7314C30.7434 58.5523 30.6937 58.4628 30.634 58.4628C30.4949 58.4628 30.3557 58.4528 30.2165 58.4329C30.0773 58.413 29.9381 58.4329 29.799 58.4926C29.4808 58.6319 29.2224 58.9105 29.0235 59.3284C28.8446 59.7464 28.6955 60.214 28.5762 60.7314C28.4569 61.2489 28.3674 61.7563 28.3078 62.2538C28.268 62.7513 28.2282 63.1394 28.1885 63.418C28.089 63.418 27.9797 63.418 27.8604 63.418C27.7411 63.418 27.6317 63.428 27.5323 63.4479C27.4329 63.4678 27.3335 63.4877 27.2341 63.5076C27.1546 63.5275 27.0651 63.5573 26.9657 63.5971C26.9657 63.5772 26.9657 63.5573 26.9657 63.5374C26.9855 63.5175 26.9955 63.4877 26.9955 63.4479C26.8364 62.9305 26.737 62.3931 26.6972 61.8359C26.6774 61.2787 26.6475 60.7314 26.6078 60.1941C26.5879 59.3981 26.5879 58.3931 26.6078 57.1792C26.6475 55.9653 26.6575 54.7215 26.6376 53.4478C26.6177 52.1543 26.5382 50.9205 26.399 49.7464C26.2797 48.5523 26.0511 47.5871 25.713 46.8508ZM33.8954 58.5225C33.9153 58.3235 33.975 58.1643 34.0744 58.0449C34.1937 57.9255 34.3229 57.8658 34.4621 57.8658C34.6013 57.8459 34.7305 57.8857 34.8498 57.9852C34.9691 58.0847 35.0486 58.2439 35.0884 58.4628C35.2077 59.219 35.2872 59.9852 35.327 60.7613C35.3866 61.5175 35.4562 62.2737 35.5358 63.0299C35.5954 63.1692 35.6153 63.3086 35.5954 63.4479C35.5954 63.4678 35.5855 63.4877 35.5656 63.5076C35.5656 63.5275 35.5656 63.5474 35.5656 63.5673L34.4024 63.4479C34.2831 62.612 34.1937 61.7961 34.134 61.0001C34.0943 60.1842 34.0147 59.3583 33.8954 58.5225ZM34.7007 54.1941C34.8796 54.2936 34.9989 54.413 35.0586 54.5523C35.1182 54.6916 35.1282 54.8309 35.0884 54.9702C35.0486 55.1095 34.9492 55.219 34.7902 55.2986C34.651 55.3583 34.482 55.3583 34.2831 55.2986H34.2533L34.0147 55.2389C34.0346 55.0399 34.0445 54.8409 34.0445 54.6419C34.0445 54.4429 34.0445 54.2439 34.0445 54.0449H34.0744C34.1539 54.0449 34.2334 54.0648 34.313 54.1046C34.4124 54.1046 34.5416 54.1344 34.7007 54.1941ZM42.403 59.3583C42.0252 59.3782 41.7966 59.229 41.717 58.9106C41.3989 58.8111 41.0112 58.8011 40.5539 58.8807C40.0966 58.9404 39.7089 59.0299 39.3907 59.1494C39.8282 59.3285 40.3252 59.4877 40.8819 59.627C41.4585 59.7464 42.0053 59.8956 42.5223 60.0747C43.0392 60.2538 43.4866 60.4827 43.8644 60.7613C44.262 61.0399 44.5106 61.4081 44.61 61.8658L44.3714 62.5523C43.9737 62.811 43.3872 63.0299 42.6118 63.209C41.8363 63.3881 41.041 63.4877 40.2258 63.5076C39.4305 63.5076 38.6948 63.408 38.0188 63.209C37.3428 63.01 36.9153 62.6518 36.7364 62.1344L36.9153 61.5971L37.2732 61.2389C37.4124 61.1593 37.5516 61.1295 37.6908 61.1494C37.8299 61.1494 37.9492 61.1892 38.0486 61.2688C38.1481 61.3484 38.2077 61.4578 38.2276 61.5971C38.2674 61.7364 38.2475 61.8757 38.1679 62.015C38.5059 62.1344 38.8937 62.224 39.3311 62.2837C39.7685 62.3235 40.2159 62.3334 40.6732 62.3135C41.1305 62.2936 41.5778 62.2439 42.0153 62.1643C42.4726 62.0847 42.8802 61.9653 43.2381 61.8061C42.9995 61.5473 42.5919 61.3384 42.0153 61.1792C41.4585 61.02 40.8819 60.8608 40.2855 60.7016C39.689 60.5424 39.1422 60.3633 38.6451 60.1643C38.1481 59.9653 37.8598 59.6966 37.7802 59.3583C37.7206 59.1195 37.7802 58.8906 37.9592 58.6717C38.1381 58.4528 38.3867 58.2737 38.7048 58.1344C39.0428 57.9752 39.4206 57.8558 39.8381 57.7762C40.2556 57.6966 40.6632 57.6568 41.0609 57.6568C41.4784 57.6568 41.8562 57.7165 42.1942 57.8359C42.5322 57.9354 42.7907 58.0946 42.9696 58.3135V59.0598C42.8305 59.1991 42.6416 59.2986 42.403 59.3583Z" fill="black"/>
</svg>
